<?xml version="1.0" encoding="UTF-8"?>
<svg xmlns="http://www.w3.org/2000/svg" viewBox="0 0 143.49 63.66" role="img" aria-hidden="true">
  <path
    fill="#fafafa"
    d="M127.57,11.63h-2.61v24.69c0,2.85-2.3,5.15-5.15,5.15l-9.15-11.71v11.71h-5.86V20.12h5.52l8.79,11.29V11.63H15.65c-2.69,0-4.87,2.16-4.87,4.87v27.74c0,2.72,2.18,4.87,4.87,4.87H120.55c6.58,0,11.88-5.31,11.88-11.88V16.5c0-2.71-2.18-4.87-4.86-4.87ZM36.25,41.47H18.92V20.12h17.18v5h-11.32v3.27h10.25v4.66h-10.25v3.39h11.47v5.03Zm15.5,.16h-5.49l-8.63-21.51h6.58l.27,.74,4.58,12.77,4.89-13.51h6.46l-8.66,21.51Zm23.58-.16l-4.3-6.46h-2.62v6.46h-5.92V20.12h10.09c3.3,0,5.53,.86,6.96,2.29,1.25,1.25,1.89,2.93,1.89,4.97v.06c0,3.3-1.71,5.46-4.39,6.59l5.09,7.44h-6.8Zm26.42,0h-17.33V20.12h17.18v5h-11.32v3.27h10.25v4.66h-10.25v3.39h11.47v5.03Zm-29.44-16.25h-3.9v5.15h3.93c1.98,0,3.17-.98,3.17-2.53v-.06c0-1.71-1.25-2.56-3.2-2.56Z"
  />
</svg>
